<svg id="eiER4sXj3de1" xmlns="http://www.w3.org/2000/svg" xmlnsXlink="http://www.w3.org/1999/xlink" viewBox="0 0 25 31" shape-rendering="geometricPrecision" text-rendering="geometricPrecision"><path d="M4.46429,0c-1.18401,0-2.31951.450278-3.15673,1.25178s-1.30756,1.88856-1.30756,3.02205v13.45677c0,.5612.115472,1.117.339824,1.6355s.553188.9897.967736,1.3866c.83722.8015,1.97272,1.2517,3.15673,1.2517h.89285v3.3199c-.00006.3219.0967.6369.27871.9075s.44158.4852.74766.6183c.30607.133.64571.1789.97829.1321s.64404-.1844.89713-.3962l5.46967-4.5816h6.8071c.5863,0,1.1668-.1105,1.7084-.3253s1.0338-.5296,1.4483-.9264c.4146-.3969.7434-.8681.9678-1.3866s.3398-1.0743.3398-1.6355v-13.45677c0-1.13349-.4703-2.22055-1.3076-3.02205s-1.9727-1.25178-3.1567-1.25178L4.46429,0Z" transform="translate(0 4)" fill="#c64d56"/><g id="eiER4sXj3de3" transform="translate(-.00007 10)"><path d="M6.98316,6.50327v0L8.33158,7.58931l.00001.00001c.55003.44298,1.33343.33128,1.75281-.22677.3913-.52081.6918-.87338,1.0175-1.1039.3042-.21532.6523-.33833,1.1696-.33833.3788,0,.8176.13315,1.1522.36403s.4989.50768.4989.78387c0,.2153-.0722.37629-.2607.56209-.2133.21026-.5408.41784-1.0266.70713v0c-.0349.0208-.0706.04194-.1068.06343C11.4472,9.04215,9.8186,10.008,9.8186,12.3v.325c0,.6874.5317,1.2969,1.2502,1.2969h.7967c-1.3331.175-2.32932,1.378-2.32932,2.7781c0,1.5155,1.16722,2.8,2.66532,2.8s2.6653-1.2845,2.6653-2.8c0-1.4002-.9963-2.6031-2.3293-2.7781h.7966c.7185,0,1.2502-.6095,1.2502-1.2969v-.1917c0-.0934.0538-.2328.4051-.4872.1652-.1196.3622-.2412.5952-.384l.0204-.0125c.2223-.1362.4709-.2886.7207-.4607.5165-.3556,1.0653-.8128,1.4827-1.46011C18.2301,8.97477,18.5,8.15408,18.5,7.1c0-1.62082-.792-3.02518-1.9178-4.01333C15.4595,2.10135,13.9732,1.5,12.5147,1.5c-1.3238,0-2.4414.28921-3.40291.85383-.95821.56269-1.73115,1.38114-2.39509,2.3945-.36641.55927-.26149,1.32972.26646,1.75494Z" transform="translate(0-5)" fill="#fff" stroke="#c64d56"/><rect width="1.438255" height="1.186395" rx="0" ry="0" transform="matrix(3.476436 0 0 0.826032 10 8.426182)" fill="#c64d56" stroke-width="0"/></g></svg>