<svg width="127" height="23" viewBox="0 0 127 23" fill="none" xmlns="http://www.w3.org/2000/svg">
<path d="M13.992 19.904L10.934 16.846C10.186 17.0513 9.42333 17.154 8.646 17.154C7.22333 17.154 5.92533 16.824 4.752 16.164C3.57867 15.4893 2.64733 14.558 1.958 13.37C1.28333 12.1673 0.946 10.818 0.946 9.322C0.946 7.826 1.28333 6.484 1.958 5.296C2.64733 4.09333 3.57867 3.162 4.752 2.502C5.92533 1.82733 7.22333 1.49 8.646 1.49C10.0833 1.49 11.3887 1.82733 12.562 2.502C13.7353 3.162 14.6593 4.086 15.334 5.274C16.0087 6.462 16.346 7.81133 16.346 9.322C16.346 10.7887 16.0233 12.1087 15.378 13.282C14.7327 14.4553 13.8453 15.3793 12.716 16.054L16.588 19.904H13.992ZM2.992 9.322C2.992 10.5393 3.234 11.61 3.718 12.534C4.21667 13.458 4.89133 14.1693 5.742 14.668C6.60733 15.1667 7.57533 15.416 8.646 15.416C9.71667 15.416 10.6773 15.1667 11.528 14.668C12.3933 14.1693 13.068 13.458 13.552 12.534C14.0507 11.61 14.3 10.5393 14.3 9.322C14.3 8.09 14.0507 7.01933 13.552 6.11C13.068 5.186 12.4007 4.47467 11.55 3.976C10.6993 3.47733 9.73133 3.228 8.646 3.228C7.56067 3.228 6.59267 3.47733 5.742 3.976C4.89133 4.47467 4.21667 5.186 3.718 6.11C3.234 7.01933 2.992 8.09 2.992 9.322ZM29.7239 4.944V17H27.7219V15.218C27.3406 15.834 26.8052 16.318 26.1159 16.67C25.4412 17.0073 24.6932 17.176 23.8719 17.176C22.9332 17.176 22.0899 16.9853 21.3419 16.604C20.5939 16.208 19.9999 15.6213 19.5599 14.844C19.1346 14.0667 18.9219 13.1207 18.9219 12.006V4.944H20.9019V11.742C20.9019 12.93 21.2026 13.8467 21.8039 14.492C22.4052 15.1227 23.2266 15.438 24.2679 15.438C25.3386 15.438 26.1819 15.108 26.7979 14.448C27.4139 13.788 27.7219 12.8273 27.7219 11.566V4.944H29.7239ZM34.1382 2.986C33.7568 2.986 33.4342 2.854 33.1702 2.59C32.9062 2.326 32.7742 2.00333 32.7742 1.622C32.7742 1.24067 32.9062 0.917999 33.1702 0.653999C33.4342 0.389999 33.7568 0.257999 34.1382 0.257999C34.5048 0.257999 34.8128 0.389999 35.0622 0.653999C35.3262 0.917999 35.4582 1.24067 35.4582 1.622C35.4582 2.00333 35.3262 2.326 35.0622 2.59C34.8128 2.854 34.5048 2.986 34.1382 2.986ZM35.1062 4.944V17H33.1042V4.944H35.1062ZM40.0142 15.35H45.9322V17H37.7262V15.35L43.5782 6.572H37.7702V4.944H45.8882V6.572L40.0142 15.35Z" fill="#556272"/>
<path d="M53.3919 17.154C52.3799 17.154 51.4706 16.978 50.6639 16.626C49.8719 16.2593 49.2486 15.7607 48.7939 15.13C48.3393 14.4847 48.1046 13.744 48.0899 12.908H50.2239C50.2973 13.6267 50.5906 14.2353 51.1039 14.734C51.6319 15.218 52.3946 15.46 53.3919 15.46C54.3453 15.46 55.0933 15.2253 55.6359 14.756C56.1933 14.272 56.4719 13.656 56.4719 12.908C56.4719 12.3213 56.3106 11.8447 55.9879 11.478C55.6653 11.1113 55.2619 10.8327 54.7779 10.642C54.2939 10.4513 53.6413 10.246 52.8199 10.026C51.8079 9.762 50.9939 9.498 50.3779 9.234C49.7766 8.97 49.2559 8.55933 48.8159 8.002C48.3906 7.43 48.1779 6.66733 48.1779 5.714C48.1779 4.878 48.3906 4.13733 48.8159 3.492C49.2413 2.84667 49.8353 2.348 50.5979 1.996C51.3753 1.644 52.2626 1.468 53.2599 1.468C54.6973 1.468 55.8706 1.82733 56.7799 2.546C57.7039 3.26467 58.2246 4.218 58.3419 5.406H56.1419C56.0686 4.81933 55.7606 4.306 55.2179 3.866C54.6753 3.41133 53.9566 3.184 53.0619 3.184C52.2259 3.184 51.5439 3.404 51.0159 3.844C50.4879 4.26933 50.2239 4.87067 50.2239 5.648C50.2239 6.20533 50.3779 6.66 50.6859 7.012C51.0086 7.364 51.3973 7.63533 51.8519 7.826C52.3213 8.002 52.9739 8.20733 53.8099 8.442C54.8219 8.72067 55.6359 8.99933 56.2519 9.278C56.8679 9.542 57.3959 9.96 57.8359 10.532C58.2759 11.0893 58.4959 11.852 58.4959 12.82C58.4959 13.568 58.2979 14.272 57.9019 14.932C57.5059 15.592 56.9193 16.1273 56.1419 16.538C55.3646 16.9487 54.4479 17.154 53.3919 17.154ZM71.826 4.944L64.566 22.676H62.498L64.874 16.868L60.012 4.944H62.234L66.018 14.712L69.758 4.944H71.826ZM78.1065 17.198C77.1825 17.198 76.3539 17.044 75.6205 16.736C74.8872 16.4133 74.3079 15.9733 73.8825 15.416C73.4572 14.844 73.2225 14.1913 73.1785 13.458H75.2465C75.3052 14.0593 75.5839 14.5507 76.0825 14.932C76.5959 15.3133 77.2632 15.504 78.0845 15.504C78.8472 15.504 79.4485 15.3353 79.8885 14.998C80.3285 14.6607 80.5485 14.2353 80.5485 13.722C80.5485 13.194 80.3139 12.8053 79.8445 12.556C79.3752 12.292 78.6492 12.0353 77.6665 11.786C76.7719 11.5513 76.0385 11.3167 75.4665 11.082C74.9092 10.8327 74.4252 10.4733 74.0145 10.004C73.6185 9.52 73.4205 8.88933 73.4205 8.112C73.4205 7.496 73.6039 6.93133 73.9705 6.418C74.3372 5.90467 74.8579 5.50133 75.5325 5.208C76.2072 4.9 76.9772 4.746 77.8425 4.746C79.1772 4.746 80.2552 5.08333 81.0765 5.758C81.8979 6.43267 82.3379 7.35667 82.3965 8.53H80.3945C80.3505 7.89933 80.0939 7.39333 79.6245 7.012C79.1699 6.63067 78.5539 6.44 77.7765 6.44C77.0579 6.44 76.4859 6.594 76.0605 6.902C75.6352 7.21 75.4225 7.61333 75.4225 8.112C75.4225 8.508 75.5472 8.838 75.7965 9.102C76.0605 9.35133 76.3832 9.55667 76.7645 9.718C77.1605 9.86467 77.7032 10.0333 78.3925 10.224C79.2579 10.4587 79.9619 10.6933 80.5045 10.928C81.0472 11.148 81.5092 11.4853 81.8905 11.94C82.2865 12.3947 82.4919 12.9887 82.5065 13.722C82.5065 14.382 82.3232 14.976 81.9565 15.504C81.5899 16.032 81.0692 16.45 80.3945 16.758C79.7345 17.0513 78.9719 17.198 78.1065 17.198ZM87.7747 6.594V13.7C87.7747 14.2867 87.8993 14.7047 88.1487 14.954C88.398 15.1887 88.8307 15.306 89.4467 15.306H90.9207V17H89.1167C88.002 17 87.166 16.7433 86.6087 16.23C86.0513 15.7167 85.7727 14.8733 85.7727 13.7V6.594H84.2107V4.944H85.7727V1.908H87.7747V4.944H90.9207V6.594H87.7747ZM104.346 10.51C104.346 10.8913 104.324 11.2947 104.28 11.72H94.6443C94.7177 12.908 95.121 13.8393 95.8543 14.514C96.6023 15.174 97.5043 15.504 98.5603 15.504C99.4257 15.504 100.144 15.306 100.716 14.91C101.303 14.4993 101.714 13.9567 101.948 13.282H104.104C103.782 14.4407 103.136 15.3867 102.168 16.12C101.2 16.8387 99.9977 17.198 98.5603 17.198C97.4163 17.198 96.3897 16.9413 95.4803 16.428C94.5857 15.9147 93.8817 15.1887 93.3683 14.25C92.855 13.2967 92.5983 12.1967 92.5983 10.95C92.5983 9.70333 92.8477 8.61067 93.3463 7.672C93.845 6.73333 94.5417 6.01467 95.4363 5.516C96.3457 5.00267 97.387 4.746 98.5603 4.746C99.7043 4.746 100.716 4.99533 101.596 5.494C102.476 5.99267 103.151 6.682 103.62 7.562C104.104 8.42733 104.346 9.41 104.346 10.51ZM102.278 10.092C102.278 9.32933 102.11 8.67667 101.772 8.134C101.435 7.57667 100.973 7.15867 100.386 6.88C99.8143 6.58667 99.1763 6.44 98.4723 6.44C97.4603 6.44 96.595 6.76267 95.8763 7.408C95.1723 8.05333 94.769 8.948 94.6663 10.092H102.278ZM121.487 4.724C122.426 4.724 123.262 4.922 123.995 5.318C124.728 5.69933 125.308 6.27867 125.733 7.056C126.158 7.83333 126.371 8.77933 126.371 9.894V17H124.391V10.18C124.391 8.97733 124.09 8.06067 123.489 7.43C122.902 6.78467 122.103 6.462 121.091 6.462C120.05 6.462 119.221 6.79933 118.605 7.474C117.989 8.134 117.681 9.09467 117.681 10.356V17H115.701V10.18C115.701 8.97733 115.4 8.06067 114.799 7.43C114.212 6.78467 113.413 6.462 112.401 6.462C111.36 6.462 110.531 6.79933 109.915 7.474C109.299 8.134 108.991 9.09467 108.991 10.356V17H106.989V4.944H108.991V6.682C109.387 6.05133 109.915 5.56733 110.575 5.23C111.25 4.89267 111.99 4.724 112.797 4.724C113.809 4.724 114.704 4.95133 115.481 5.406C116.258 5.86067 116.838 6.528 117.219 7.408C117.556 6.55733 118.114 5.89733 118.891 5.428C119.668 4.95867 120.534 4.724 121.487 4.724Z" fill="#C64D56"/>
</svg>
